<svg id="visual" viewBox="0 0 400 500" width="400" height="500" xmlns="http://www.w3.org/2000/svg" xmlns:xlink="http://www.w3.org/1999/xlink" version="1.1"><g transform="translate(201.48332262425427 274.10999789497106)"><path d="M66.2 -124.1C94 -98.6 130.6 -97.5 139 -80.9C147.4 -64.3 127.7 -32.2 117.5 -5.9C107.2 20.3 106.4 40.7 106.1 71.3C105.8 101.9 105.9 142.7 88.3 154.4C70.7 166.1 35.3 148.5 9.9 131.5C-15.6 114.4 -31.3 97.8 -58.7 91.8C-86.1 85.8 -125.3 90.4 -138.3 76.9C-151.4 63.3 -138.2 31.7 -135.4 1.6C-132.7 -28.5 -140.4 -57 -132.6 -79.5C-124.7 -102 -101.4 -118.6 -76.7 -146C-52 -173.4 -26 -211.7 -3.4 -205.8C19.2 -199.9 38.3 -149.7 66.2 -124.1" fill="#4163e1"></path></g></svg>