<svg id="Capa_1" enable-background="new 0 0 512 512" height="512" viewBox="0 0 512 512" width="512" xmlns="http://www.w3.org/2000/svg"><g><g><path d="m245 11c-83.261 0-156.808 41.543-201.08 105.021v279.958c44.272 63.478 117.819 105.021 201.08 105.021 135.31 0 245-109.69 245-245s-109.69-245-245-245z" fill="#ffb332"/></g><g><path d="m245 468.5c-117.173 0-212.5-95.327-212.5-212.5s95.327-212.5 212.5-212.5 212.5 95.327 212.5 212.5-95.327 212.5-212.5 212.5zm0-410c-108.902 0-197.5 88.598-197.5 197.5s88.598 197.5 197.5 197.5 197.5-88.598 197.5-197.5-88.598-197.5-197.5-197.5z" fill="#ffdd40"/></g><g><path d="m245 428.5c-95.117 0-172.5-77.383-172.5-172.5s77.383-172.5 172.5-172.5 172.5 77.383 172.5 172.5-77.383 172.5-172.5 172.5zm0-330c-86.846 0-157.5 70.654-157.5 157.5s70.654 157.5 157.5 157.5 157.5-70.654 157.5-157.5-70.654-157.5-157.5-157.5z" fill="#ffdd40"/></g><g><path d="m512 156v200c0 22.09-17.91 40-40 40h-428.08c-27.69-39.68-43.92-87.94-43.92-140s16.23-100.32 43.92-140h428.08c22.09 0 40 17.91 40 40z" fill="#ff4155"/></g><g><path d="m171.253 356v-200c0-22.09 17.91-40 40-40h-167.333c-27.69 39.68-43.92 87.94-43.92 140s16.23 100.32 43.92 140h167.333c-22.09 0-40-17.91-40-40z" fill="#e80054"/></g><g><path d="m113.569 296.281h-.099c-7.828.044-16.076.077-22.998.09v-98.061c0-9.558-7.748-17.306-17.306-17.306s-17.306 7.748-17.306 17.306v115.277c0 8.43 6.074 15.633 14.383 17.057 1.246.214 30.193.322 43.421.249 9.558-.054 17.262-7.845 17.209-17.403-.054-9.525-7.792-17.209-17.304-17.209z" fill="#fff"/></g><g><path d="m171.253 181.003c-9.558 0-17.306 7.748-17.306 17.306v115.374c0 9.558 7.748 17.306 17.306 17.306s17.306-7.748 17.306-17.306v-115.373c.001-9.558-7.748-17.307-17.306-17.307z" fill="#fff"/></g><g><path d="m171.253 290.99c-9.558 0-17.306-7.748-17.306-17.306v40c0 9.558 7.748 17.306 17.306 17.306s17.306-7.748 17.306-17.306v-40c.001 9.557-7.748 17.306-17.306 17.306z" fill="#d3dcfb"/></g><g><path d="m416.834 295.852h-30.864v-22.549h27.312c9.558 0 17.306-7.748 17.306-17.306s-7.748-17.306-17.306-17.306h-27.312v-22.549h30.864c9.558 0 17.306-7.748 17.306-17.306s-7.748-17.306-17.306-17.306h-48.17c-9.558 0-17.306 7.748-17.306 17.306v114.322c0 9.558 7.748 17.306 17.306 17.306h48.17c9.558 0 17.306-7.748 17.306-17.306s-7.748-17.306-17.306-17.306z" fill="#fff"/></g><g><path d="m316.433 182.097c-9.07-3.013-18.866 1.896-21.879 10.969l-24.018 72.298-25.246-72.73c-3.134-9.029-12.994-13.804-22.024-10.674-9.029 3.135-13.808 12.995-10.674 22.025l39.446 113.641c.013.04.027.078.041.117 2.82 7.938 10.347 13.247 18.761 13.247.044 0 .09 0 .134-.001 8.468-.056 15.989-5.48 18.716-13.497.013-.039.026-.079.039-.118l37.671-113.397c3.014-9.07-1.897-18.866-10.967-21.88z" fill="#fff"/></g><g><path d="m245.29 192.634c-3.134-9.029-12.994-13.804-22.024-10.674-9.029 3.135-13.808 12.995-10.674 22.025l39.446 113.641c.013.04.027.078.041.117.219.615.475 1.208.748 1.791l17.709-54.17z" fill="#d3dcfb"/></g><g><circle cx="463.558" cy="166" fill="#ffdd40" r="15"/></g><g><path d="m463.558 166c0-5.549 3.021-10.382 7.5-12.977-2.208-1.279-4.765-2.023-7.5-2.023-8.284 0-15 6.716-15 15s6.716 15 15 15c2.735 0 5.292-.744 7.5-2.023-4.48-2.595-7.5-7.428-7.5-12.977z" fill="#ffc839"/></g><g><path d="m90.472 296.371v-98.061c0-9.558-7.748-17.306-17.306-17.306s-17.306 7.748-17.306 17.306v115.277c0 8.43 6.074 15.633 14.383 17.057 1.246.214 2.07.356 14.953.356 1.538 0 3.249-.002 5.152-.006-9.505-.068-17.19-7.788-17.19-17.308-.001-9.563 7.751-17.315 17.314-17.315z" fill="#d3dcfb"/></g><g><path d="m368.664 313.157c0-9.558 7.748-17.306 17.306-17.306v-22.549c-9.558 0-17.306-7.748-17.306-17.306s7.748-17.306 17.306-17.306v-22.549c-9.558 0-17.306-7.748-17.306-17.306s7.748-17.306 17.306-17.306h-17.306c-9.558 0-17.306 7.748-17.306 17.306v114.322c0 9.558 7.748 17.306 17.306 17.306h17.306c-9.558.001-17.306-7.748-17.306-17.306z" fill="#d3dcfb"/></g></g></svg>